# xmcd
#
# Track frame offsets:
#	150
#	15550
#	29647
#	43680
#	58177
#	68915
#	84940
#	99960
#	113132
#	127057
#	140030
#	155715
#	169787
#	182740
#	196950
#	213657
#	226180
#	238605
#	258972
#	275327
#
# Disc length: 3906 seconds
#
# Revision: 1
# Processed by: cddbd v1.5.1PL0 Copyright (c) Steve Scherf et al.
# Submitted via: CDex 1.50Beta5
#
DISCID=1f0f4014
DTITLE=Various Artist - 帰ってきたヨッパライ [フォーク&ポップス大全集1]
DYEAR=1900
DGENRE=Pop
TTITLE0=ザ・フォーク・クルセダーズ/帰ってきたヨッパライ
TTITLE1=ザ・フォーク・クルセダーズ/悲しくてやりきれない
TTITLE2=ザ・フォーク・クルセダーズ/青年は荒野をめざす
TTITLE3=加藤和彦と北山修/あの素晴しい愛をもう一度
TTITLE4=加藤和彦/家をつくるなら
TTITLE5=はしだのりひことシューベルツ/風
TTITLE6=はしだのりひことシューベルツ/さすらい人の子守唄
TTITLE7=はしだのりひことクライマックス/花嫁
TTITLE8=ジローズ/戦争を知らない子供たち
TTITLE9=ザ・ズートルビー/水虫の唄
TTITLE10=フォー・セインツ/小さな日記
TTITLE11=トワ・エ・モワ/或る日突然
TTITLE12=トワ・エ・モワ/誰もいない海
TTITLE13=浅川マキ/夜が明けたら
TTITLE14=かまやつひろし/我が良き友よ
TTITLE15=ザ・リガニーズ/海は恋してる
TTITLE16=市川染五郎/野バラ咲く路
TTITLE17=チューリップ/サボテンの花
TTITLE18=チューリップ/心の旅
TTITLE19=チューリップ/青春の影
EXTD=
EXTT0=
EXTT1=
EXTT2=
EXTT3=
EXTT4=
EXTT5=
EXTT6=
EXTT7=
EXTT8=
EXTT9=
EXTT10=
EXTT11=
EXTT12=
EXTT13=
EXTT14=
EXTT15=
EXTT16=
EXTT17=
EXTT18=
EXTT19=
PLAYORDER=
